<svg id="Layer_1" height="512" viewBox="0 0 512 512" width="512" xmlns="http://www.w3.org/2000/svg" data-name="Layer 1"><path d="m53 154v172.45l408 91.73v-264.18z" fill="#88ced8"/><path d="m460.57 408.18v16.26h-44.9l-64.76-20.11a157.062 157.062 0 0 0 -31.31-6.85s23.46-28.28 60.78-33.81a51.591 51.591 0 0 1 29.12 4.22 52.784 52.784 0 0 1 11.84 7.49z" fill="#908c85"/><path d="m415.67 424.44h-362.5v-60.45s45.9 43.16 75.16 21.77c28.96-21.19 69.46-2.81 70.27-2.45l.01.01c26.15 17.44 57.58 17.79 80.33 14.66q7.845-1.08 15.74-1.4a159.175 159.175 0 0 1 20.14.43c1.6.13 3.19.29 4.78.47a157.062 157.062 0 0 1 31.31 6.85z" fill="#6b655f"/><path d="m362.9 268.31 46.6 99.58a51.591 51.591 0 0 0 -29.12-4.22c-37.32 5.53-60.78 33.81-60.78 33.81-1.59-.18-3.18-.34-4.78-.47v-.01l-47.26-69.94 58.17-64.66c.25-.28.51-.56.78-.83 10.97-11.07 29.79-7.36 36.39 6.74z" fill="#7d8696"/><path d="m314.82 397v.01a159.175 159.175 0 0 0 -20.14-.43v-.01s-53.17-4.99-56.88-33.84c-3.1-24.02-2.63-43.84-41.4-53.7-26.98-6.86-32.74-35.72-32.74-35.72l13.86-21.83a23.1 23.1 0 0 1 38.61-.55l51.43 76.13z" fill="#e1b7a3"/><path d="m294.68 396.57v.01q-7.89.315-15.74 1.4c-22.75 3.13-54.18 2.78-80.33-14.66l-.01-.01a89.01 89.01 0 0 1 -23.65-23.33c-9.31-13.3-27.24-23.5-46.55-31.13l24.35-38.35 10.91-17.19s5.76 28.86 32.74 35.72c38.77 9.86 38.3 29.68 41.4 53.7 3.71 28.85 56.88 33.84 56.88 33.84z" fill="#c79a83"/><path d="m128.4 328.85c19.31 7.63 37.24 17.83 46.55 31.13a89.01 89.01 0 0 0 23.65 23.33c-.81-.36-41.31-18.74-70.27 2.45-29.26 21.39-75.16-21.77-75.16-21.77v-54.45s39.91 5.36 75.23 19.31z" fill="#908c85"/><path d="m152.75 290.5-24.35 38.35c-35.32-13.95-75.23-19.31-75.23-19.31v-3.09l30.71-31.54a23.1 23.1 0 0 1 26.54-4.71z" fill="#e1b7a3"/><path d="m459.785 155.185.215 268.255 36 38.37v-344.715z" fill="#6d7486"/><path d="m16 117 38.085 38h405.7l36.215-38z" fill="#959ba3"/><path d="m459.57 423h-405.4l-38.17 39h480z" fill="#959ba3"/><path d="m16 117.095v344.715l38-38.37.085-268.255z" fill="#6d7486"/><path d="m40 141.098-24-24.003v344.715l24-24.234z" fill="#494e59"/><g fill="#284268"><path d="m496 111h-109.183l-128.064-66.043a6 6 0 0 0 -5.506-.048l-128.064 66.091h-109.183a6.166 6.166 0 0 0 -6 6.191v344.426a6.34 6.34 0 0 0 6 6.383h480a6.34 6.34 0 0 0 6-6.383v-344.426a6.166 6.166 0 0 0 -6-6.191zm-240-54.055 104.666 54.055h-209.332zm225.992 66.055-23.992 25h-402.34l-25.175-25zm-178.819 267.482q-4.047-.048-8.1.1c-13.584-1.31-48.792-8.933-51.326-28.616-.216-1.671-.413-3.322-.608-4.95-2.688-22.431-5.227-43.617-45.254-53.8-19.11-4.861-25.919-22.573-27.769-28.876l12.469-19.64a17.094 17.094 0 0 1 28.575-.407zm-28.015-62.9 55.034-61.176c.187-.208.378-.41.58-.613a15.878 15.878 0 0 1 14.2-4.445 17 17 0 0 1 12.5 9.5l40.819 87.24a57.055 57.055 0 0 0 -18.787-.361c-32.136 4.765-54.29 25.071-61.763 32.875zm-80.233-12.737c32.051 8.154 33.741 22.255 36.3 43.6.2 1.663.4 3.349.621 5.056 1.916 14.881 14.135 24.218 27.256 30.015-43.079.632-66.7-19.06-79.233-36.971-8.052-11.506-22.316-21.719-42.567-30.514l24.861-39.16c4.831 10.069 14.472 23.322 32.762 27.975zm-68.956 6.644q-9.362-3.469-20.1-6.6a403.835 403.835 0 0 0 -42.922-9.875l25.233-25.922a17.083 17.083 0 0 1 19.643-3.484l36.241 17.378zm-23.313 4.965c34.119 9.951 57.419 22.734 67.379 36.969q2.636 3.767 5.532 7.2l-.246-.038c-19.8-2.939-37.273.633-50.535 10.332-22.02 16.103-57.602-12.667-65.786-19.77v-44.621a396.176 396.176 0 0 1 43.656 9.929zm6.824 71.274a37.03 37.03 0 0 0 22.39-7.129c24.87-18.19 60.57-3.416 63.943-1.953a98.184 98.184 0 0 0 28.778 12.754c16.569 4.427 35.129 5.275 55.171 2.52a155.148 155.148 0 0 1 69.275 6.107l.1.031 25.563 7.942h-315.7v-41.395c11.5 8.704 31.271 21.124 50.48 21.124zm243.258.883a161.238 161.238 0 0 0 -20.457-5.242c9.442-8.267 26.662-20.458 48.981-23.768a46.071 46.071 0 0 1 36.233 10.38l37.505 31.362v6.657h-39.839zm72.454-27.836a59.021 59.021 0 0 0 -11.153-7.338l-45.7-97.674a29.007 29.007 0 0 0 -21.321-16.239 27.734 27.734 0 0 0 -24.759 7.813c-.34.342-.672.693-.992 1.05l-53.031 58.948-47.136-69.759a29.094 29.094 0 0 0 -48.65.692l-21.912 34.516-37.529-18a29.077 29.077 0 0 0 -33.43 5.933l-20.579 21.146v-131.863h396v235.7zm-403.192-239.099 25 25.175v265.106l-25 25.175zm8.484 324.324 25.176-26h357.681l.554.172.053-.172h44.052l23.992 26zm459.516-9.376-23-24.584v-265.272l23-24.584z"/><path d="m77.868 179h-2.16a6 6 0 1 0 0 12h2.16a6 6 0 0 0 0-12z"/><path d="m193.108 179h-93.589a6 6 0 0 0 0 12h93.589a6 6 0 0 0 0-12z"/></g></svg>